<svg fill="none" height="25" viewBox="0 0 24 25" width="24" xmlns="http://www.w3.org/2000/svg"><g clip-rule="evenodd" fill="rgb(0,0,0)" fill-rule="evenodd"><path d="m1.67521 17.1011c.37335-.1794.82144-.0222 1.00084.3512.8009 1.6667 1.82913 2.6916 2.98042 3.1926 1.14876.5 2.52244.5228 4.10372-.0109.39241-.1325.81801.0783.95051.4707.1324.3925-.0783.818-.4708.9505-1.84728.6236-3.61646.6464-5.18198-.0349-1.563-.6801-2.82049-2.0176-3.73387-3.9184-.17941-.3733-.02218-.8214.35116-1.0008z"/><path d="m7.2144 2.08021c.58192.10482 1.38928.38786 2.45 1.0505.2362.14757.3838.23935.4972.30068.0588.03178.0921.04608.1071.05193.0165-.00098.0543-.00443.1237-.01724.1313-.02422.3064-.06739.5841-.13642.7935-.19725 1.6105-.30256 2.5236-.30256.913 0 1.73.10531 2.5235.30256.2777.06904.4528.1122.5841.13642.0694.01281.1072.01626.1237.01724.015-.00585.0483-.02015.1071-.05193.1134-.06133.261-.15311.4972-.30068 1.0607-.66264 1.8681-.94568 2.45-1.0505.2913-.05247.5242-.05989.7011-.0485.0882.00568.1616.01599.2205.02735.0294.00567.0551.01159.0771.01728.011.00285.021.00563.0302.0083l.013.0039.0059.00188.0029.00091.0014.00045c.0007.00022.0014.00044-.231.71355l.2324-.71311c.2135.06959.3847.23123.4663.44048.4903 1.25659.5027 2.62496.1891 3.88486-.0177.07116-.0316.1272-.043.17562-.0022.00944-.0043.01825-.0062.02649.0049.00723.0102.01498.0159.02328.0282.04123.0616.08868.104.14887.7479 1.06263 1.1848 2.30178 1.1848 3.63138 0 2.3512-.5648 4.008-1.6441 5.1874-1.0066 1.0998-2.3772 1.6888-3.8466 2.1122.2987.5264.4907 1.1262.4907 1.8122v3.2421c0 .4142-.3358.75-.75.75-.4143 0-.75-.3358-.75-.75v-3.2421c0-.4328-.1301-.816-.3647-1.1878-.4262-.6753-.1938-1.7475.7388-2.0039 1.4844-.408 2.6081-.9072 3.3752-1.7454.7484-.8177 1.2507-2.0643 1.2507-4.1747 0-.99039-.3233-1.93233-.9115-2.76803l-.0107-.01529c-.0738-.10472-.1489-.2114-.2062-.30568-.0603-.09913-.1415-.24755-.1764-.43428-.0348-.18643-.0129-.35377.0076-.46806.0194-.10846.0508-.23474.0816-.35848l.0045-.0181c.2095-.84152.2281-1.70525.0228-2.50063-.0034.00059-.0068.00119-.0102.0018-.3558.0641-.9853.26179-1.9212.84643l-.0185.01156c-.212.13249-.4.24995-.5601.33646-.165.08923-.3605.1799-.5857.21564-.2272.03605-.4445.00897-.6305-.02534-.1821-.03359-.4024-.08836-.6528-.15061l-.021-.00523c-.6745-.16767-1.37-.25826-2.1617-.25826-.7918 0-1.4873.09059-2.1618.25826l-.021.00523c-.2504.06225-.4707.11702-.6528.15061-.186.03431-.4033.06139-.6305.02534-.22524-.03574-.42069-.12641-.58573-.21564-.16003-.08651-.34805-.20398-.56011-.33646l-.0185-.01156c-.93584-.58464-1.56536-.78233-1.92118-.84643-.00341-.00061-.00679-.00121-.01015-.0018-.20538.79538-.18671 1.65911.02274 2.50063.0015.00603.00301.01208.00452.01813.03081.12372.06225.24999.08165.35845.02044.11429.04236.28163.00753.46807-.03488.18672-.11602.33513-.17633.43427-.05737.09429-.13247.20096-.2062.30568l-.01076.01529c-.58819.8357-.91143 1.77764-.91143 2.76803 0 2.1104.50225 3.357 1.25063 4.1747.76716.8382 1.89084 1.3374 3.37522 1.7454.9326.2564 1.165 1.3286.7388 2.0039-.2346.3718-.3646.755-.3646 1.1878v3.2421c0 .4142-.3358.75-.75.75-.41426 0-.75005-.3358-.75005-.75v-3.2421c0-.686.19191-1.2858.49065-1.8122-1.46941-.4234-2.84003-1.0124-3.84656-2.1122-1.07937-1.1794-1.64409-2.8362-1.64409-5.1874 0-1.3296.43688-2.56875 1.18479-3.63138.04237-.06019.07575-.10764.104-.14887.00568-.0083.01095-.01604.01583-.02328-.00188-.00824-.00392-.01705-.00615-.02649-.0114-.04842-.02533-.10446-.04304-.17562-.31358-1.2599-.30121-2.62827.1891-3.88486.08164-.20925.25278-.37089.46635-.44048l.23234.71311c-.23234-.71311-.23165-.71333-.23097-.71355l.0014-.00045.00285-.00091.00598-.00188.01299-.0039c.00914-.00267.0192-.00545.03019-.0083.022-.00569.04769-.01161.0771-.01728.05891-.01136.13232-.02167.22052-.02735.17684-.01139.40974-.00397.70107.0485zm-1.64035 4.63826c-.00003-.00002-.00015-.00102-.0003-.00289zm15.85225-.00288c-.0001.00188-.0002.00286-.0002.00288z"/></g></svg>