<svg fill="none" height="25" viewBox="0 0 24 25" width="24" xmlns="http://www.w3.org/2000/svg"><path clip-rule="evenodd" d="m5.17878 2.02892c.31809-.02212.61539.1593.74119.45229l2.85711 6.65441c.1343.31281.21253.49244.28381.61891.03212.05699.05341.08554.06511.09929.00548.00642.00987.01048.00987.01048l.00245.0019.00279.00154s.00558.00248.01374.005c.01744.00537.05229.01369.11757.02073.14474.01559.34118.0166.68206.0166h4.09102c.3409 0 .5373-.00101.6821-.0166.0653-.00704.1001-.01536.1175-.02073.0053-.00162.0089-.00295.0111-.00387l.0027-.00113.0028-.00154.0024-.0019s.0044-.00406.0099-.01048c.0117-.01375.033-.0423.0651-.09929.0713-.12647.1495-.3061.2838-.61891l2.8571-6.65441c.1258-.29299.4231-.47441.7412-.45229.3181.02211.5874.24293.6715.55052l3.0371 11.11596c.0788.2882.153.5594.1905.7946.0418.2622.0509.5465-.0496.8475-.1004.3009-.2786.5227-.4694.7072-.1714.1656-.3936.3381-.6299.5216l-7.8944 6.1288c-.2738.2127-.5289.4108-.761.5504-.2577.1549-.5553.2816-.916.2816s-.6583-.1267-.916-.2816c-.232-.1396-.4872-.3377-.761-.5504l-7.8944-6.1288c-.23632-.1835-.45856-.356-.6299-.5216-.19085-.1845-.36896-.4063-.46944-.7072-.1005-.301-.09139-.5853-.04956-.8475.03753-.2352.11166-.5064.19045-.7946l3.03717-11.11596c.08404-.30759.35337-.52841.67146-.55052zm13.43272 3.01653-2.0233 4.71232c-.1166.27173-.2264.52753-.3423.73323-.1292.2292-.2971.4554-.5595.6282-.2624.1726-.5365.2374-.7981.2656-.2349.0253-.5135.0253-.8098.0253h-4.15701c-.29628 0-.57493 0-.8098-.0253-.26158-.0282-.53574-.093-.79805-.2656-.26241-.1728-.43031-.399-.5595-.6282-.11591-.2057-.22572-.4615-.34237-.73325-.00433-.01009-.00867-.0202-.01302-.03034l-2.01023-4.68196-2.46261 9.01305c-.09064.3318-.14185.5231-.16495.6679-.01041.0652-.01146.1011-.01081.1191.0003.0085.00122.0142.00122.0142l.00066.0027.0011.0026s.00274.0052.0076.0121c.0104.0149.03287.0431.08049.0891.10561.1021.26169.2246.53357.4357l7.83841 6.0853c.3138.2437.4978.3849.6439.4728.0663.0399.1047.056.1244.0626.0091.0031.0153.0042.0153.0042l.0032.0003.0032-.0003s.0062-.0011.0153-.0042c.0197-.0066.0581-.0227.1244-.0626.1461-.0879.3301-.2291.6439-.4728l7.8384-6.0853c.2719-.2111.428-.3336.5336-.4357.0476-.046.0701-.0742.0805-.0891.0048-.007.0076-.0121.0076-.0121l.0011-.0026.0006-.0027s.0009-.0057.0012-.0142c.0007-.018-.0004-.0539-.0108-.1191-.0231-.1448-.0743-.3361-.1649-.6679z" fill="rgb(0,0,0)" fill-rule="evenodd"/></svg>