<svg version="1.0" xmlns="http://www.w3.org/2000/svg" preserveAspectRatio="xMidYMid meet" viewBox="464 126.25 238.12 317.05">

<g transform="translate(0.000000,569.000000) scale(0.100000,-0.100000)" fill="#000000" stroke="none">
<path d="M5046 4414 c-187 -46 -341 -200 -391 -390 -56 -214 55 -542 248 -738 202 -203 481 -310 862 -330 568 -30 943 -169 1190 -439 l66 -72 -4 570 c-4 618 -2 604 -62 729 -17 36 -54 85 -94 126 -211 214 -542 214 -751 1 -111 -113 -147 -211 -156 -416 -2 -71 -6 -130 -7 -131 -7 -7 -45 -7 -139 0 l-108 8 0 308 c0 189 -4 330 -11 362 -42 198 -205 367 -396 411 -79 19 -176 19 -247 1z m209 -384 c16 -10 39 -34 50 -52 18 -30 20 -54 23 -291 l3 -259 -42 24 c-68 37 -156 125 -200 198 -46 78 -85 219 -75 271 22 116 142 170 241 109z m1299 -390 c78 -38 81 -48 84 -277 l3 -203 -68 26 c-37 15 -108 38 -156 52 l-88 26 3 151 c3 170 10 188 83 225 51 25 88 25 139 0z"/>
<path d="M4640 2673 c0 -607 0 -613 57 -731 41 -85 153 -193 244 -237 207 -98 438 -58 600 104 118 118 159 234 159 448 l0 114 83 -6 c45 -3 101 -8 123 -11 l42 -5 4 -327 c4 -276 8 -336 23 -382 29 -92 65 -152 132 -221 104 -108 231 -162 378 -162 143 0 260 48 366 150 142 137 189 312 144 528 -37 177 -108 314 -229 443 -205 217 -460 322 -846 348 -127 8 -443 50 -556 74 -247 51 -500 190 -656 359 l-68 73 0 -559z m516 -201 c60 -21 125 -42 143 -45 l33 -7 -4 -142 c-3 -126 -6 -147 -25 -178 -29 -47 -77 -74 -134 -74 -62 0 -109 29 -136 84 -21 41 -23 57 -23 228 0 171 1 184 18 179 9 -3 67 -23 128 -45z m1325 -333 c97 -96 159 -234 159 -355 0 -156 -199 -215 -287 -84 -22 32 -23 40 -23 292 l0 259 42 -23 c24 -13 72 -53 109 -89z"/>
</g>
</svg>