<svg fill="none" height="24" viewBox="0 0 25 24" width="25" xmlns="http://www.w3.org/2000/svg"><g clip-rule="evenodd" fill="rgb(0,0,0)" fill-rule="evenodd"><path d="m9.30697 10.5695-6.91303-3.91695.73946-1.30507 6.913 3.91697c1.2553.71126 2.0171.98555 2.7173.98555s1.4619-.27429 2.7172-.98555l6.913-3.91697.7395 1.30507-6.913 3.91695c-1.2933.7328-2.3442 1.1805-3.4567 1.1805s-2.1635-.4477-3.45673-1.1805z"/><path d="m15.646 4.28633c-1.9279-.04844-3.8367-.04844-5.76467 0-1.59666.04011-2.71237.07004-3.5736.22003-.82753.14412-1.3435.38773-1.76777.81361-.42723.42885-.66706.93826-.80665 1.74208-.14579.83955-.17087 1.9228-.20404 3.47835-.0208.975-.0208 1.9442 0 2.9192.03317 1.5556.05825 2.6388.20405 3.4784.13959.8038.37942 1.3132.80664 1.742.42427.4259.94024.6695 1.76777.8136.86124.15 1.97694.18 3.57361.2201 1.92796.0484 3.83676.0484 5.76466 0 1.5967-.0401 2.7124-.0701 3.5736-.2201.8276-.1441 1.3435-.3877 1.7678-.8136.4272-.4288.667-.9382.8066-1.742.1458-.8396.1709-1.9228.2041-3.4784.0208-.975.0208-1.9442 0-2.9192-.0332-1.55554-.0583-2.63879-.2041-3.47834-.1396-.80382-.3794-1.31322-.8066-1.74208-.4243-.42587-.9402-.66949-1.7678-.81361-.8612-.14999-1.9769-.17992-3.5736-.22004zm-5.80234-1.49953c1.95304-.04907 3.88694-.04907 5.84004.00001l.0581.00146c1.5249.03829 2.7519.0691 3.7352.24035 1.0295.17929 1.8662.52317 2.5731 1.23272.7039.70658 1.0459 1.53127 1.2218 2.54408.1675.96437.193 2.16141.2246 3.64428l.0012.0587c.0213.9963.0213 1.9869 0 2.9832l-.0012.0587c-.0316 1.4829-.0571 2.6799-.2246 3.6443-.1759 1.0128-.5179 1.8375-1.2218 2.5441-.7069.7095-1.5436 1.0534-2.5731 1.2327-.9833.1712-2.2103.2021-3.7351.2403l-.0582.0015c-1.9531.0491-3.887.0491-5.84004 0l-.05822-.0015c-1.5248-.0382-2.75176-.0691-3.73507-.2403-1.0295-.1793-1.86621-.5232-2.57308-1.2327-.7039-.7066-1.04597-1.5313-1.22186-2.5441-.16746-.9644-.19297-2.1614-.22457-3.6442l-.00125-.0588c-.02125-.9963-.02125-1.9869 0-2.9832l.00125-.0587c.0316-1.48289.0571-2.67992.22457-3.6443.17588-1.0128.51796-1.8375 1.22186-2.54408.70686-.70955 1.54358-1.05343 2.57308-1.23272.98332-.17125 2.2103-.20205 3.73513-.24034z"/></g></svg>